<svg width="30" height="30" viewBox="0 0 30 30" fill="none" xmlns="http://www.w3.org/2000/svg">
<path d="M3.75 7.75C3.75 5.86438 3.75 4.92157 4.33579 4.33579C4.92157 3.75 5.86438 3.75 7.75 3.75H22.25C24.1356 3.75 25.0784 3.75 25.6642 4.33579C26.25 4.92157 26.25 5.86438 26.25 7.75V22.25C26.25 24.1356 26.25 25.0784 25.6642 25.6642C25.0784 26.25 24.1356 26.25 22.25 26.25H7.75C5.86438 26.25 4.92157 26.25 4.33579 25.6642C3.75 25.0784 3.75 24.1356 3.75 22.25V7.75Z" stroke="#33363F" stroke-width="2"/>
<path d="M3.75 12.5V12.5C3.75 14.1437 3.75 14.9656 4.20398 15.5188C4.28709 15.6201 4.37995 15.7129 4.48121 15.796C5.03439 16.25 5.85626 16.25 7.5 16.25H8.55848C9.2542 16.25 9.60206 16.25 9.86395 16.4388C10.1258 16.6275 10.2358 16.9575 10.4558 17.6175L10.7942 18.6325C11.0142 19.2925 11.1242 19.6225 11.386 19.8112C11.6479 20 11.9958 20 12.6915 20H17.3085C18.0042 20 18.3521 20 18.614 19.8112C18.8758 19.6225 18.9858 19.2925 19.2058 18.6325L19.5442 17.6175C19.7642 16.9575 19.8742 16.6275 20.136 16.4388C20.3979 16.25 20.7458 16.25 21.4415 16.25H22.5C24.1437 16.25 24.9656 16.25 25.5188 15.796C25.6201 15.7129 25.7129 15.6201 25.796 15.5188C26.25 14.9656 26.25 14.1437 26.25 12.5V12.5" stroke="#33363F" stroke-width="2"/>
</svg>
