<svg width="30" height="30" viewBox="0 0 30 30" fill="none" xmlns="http://www.w3.org/2000/svg">
<path d="M23.75 3.75V3.75C24.4014 3.75 24.727 3.75 24.9913 3.83331C25.5514 4.00991 25.9901 4.44863 26.1667 5.00873C26.25 5.27295 26.25 5.59864 26.25 6.25V20.87C26.25 21.8781 26.25 22.3821 26.0538 22.7672C25.8812 23.1059 25.6059 23.3812 25.2672 23.5538C24.8821 23.75 24.3781 23.75 23.37 23.75H6.63C5.62191 23.75 5.11786 23.75 4.73282 23.5538C4.39413 23.3812 4.11876 23.1059 3.94619 22.7672C3.75 22.3821 3.75 21.8781 3.75 20.87V6.25C3.75 5.59864 3.75 5.27295 3.83331 5.00873C4.00991 4.44863 4.44863 4.00991 5.00873 3.83331C5.27295 3.75 5.59864 3.75 6.25 3.75V3.75" stroke="#33363F" stroke-width="2"/>
<path d="M23.75 3.75H22.4861C21.8847 3.75 21.584 3.75 21.3423 3.89935C21.1007 4.0487 20.9662 4.31766 20.6972 4.85557L20.5528 5.14443C20.2838 5.68234 20.1493 5.9513 19.9077 6.10065C19.666 6.25 19.3653 6.25 18.7639 6.25H11.125C10.4787 6.25 10.1556 6.25 9.90363 6.08205C9.65171 5.9141 9.52742 5.61581 9.27885 5.01923L9.26282 4.98077C9.01425 4.38419 8.88996 4.0859 8.63803 3.91795C8.38611 3.75 8.06296 3.75 7.41667 3.75H6.25" stroke="#33363F" stroke-width="2"/>
<path d="M26.25 10H22.4861C21.8847 10 21.584 10 21.3423 10.1493C21.1007 10.2987 20.9662 10.5677 20.6972 11.1056L20.5528 11.3944C20.2838 11.9323 20.1493 12.2013 19.9077 12.3507C19.666 12.5 19.3653 12.5 18.7639 12.5H11.125C10.4787 12.5 10.1556 12.5 9.90363 12.3321C9.65171 12.1641 9.52742 11.8658 9.27885 11.2692L9.26282 11.2308C9.01425 10.6342 8.88996 10.3359 8.63803 10.1679C8.38611 10 8.06296 10 7.41667 10H3.75" stroke="#33363F" stroke-width="2"/>
<path d="M26.25 16.25H22.4861C21.8847 16.25 21.584 16.25 21.3423 16.3993C21.1007 16.5487 20.9662 16.8177 20.6972 17.3556L20.5528 17.6444C20.2838 18.1823 20.1493 18.4513 19.9077 18.6007C19.666 18.75 19.3653 18.75 18.7639 18.75H11.125C10.4787 18.75 10.1556 18.75 9.90363 18.5821C9.65171 18.4141 9.52742 18.1158 9.27885 17.5192L9.26282 17.4808C9.01425 16.8842 8.88996 16.5859 8.63803 16.4179C8.38611 16.25 8.06296 16.25 7.41667 16.25H3.75" stroke="#33363F" stroke-width="2"/>
</svg>
