<svg width="33" height="33" viewBox="0 0 33 33" fill="none" xmlns="http://www.w3.org/2000/svg">
<path d="M11 8.875C11 7.93219 11 7.46079 11.2929 7.16789C11.5858 6.875 12.0572 6.875 13 6.875H16.6389C17.2403 6.875 17.541 6.875 17.7827 7.02435C18.0243 7.1737 18.1588 7.44266 18.4278 7.98057L19.9375 11H25.5C26.4428 11 26.9142 11 27.2071 11.2929C27.5 11.5858 27.5 12.0572 27.5 13V18.625C27.5 19.5678 27.5 20.0392 27.2071 20.3321C26.9142 20.625 26.4428 20.625 25.5 20.625H13C12.0572 20.625 11.5858 20.625 11.2929 20.3321C11 20.0392 11 19.5678 11 18.625V8.875Z" stroke="#33363F" stroke-width="2" stroke-linejoin="round"/>
<path d="M23.375 20.625V24.525C23.375 25.0851 23.375 25.3651 23.266 25.579C23.1701 25.7672 23.0172 25.9201 22.829 26.016C22.6151 26.125 22.3351 26.125 21.775 26.125H7.1C6.53995 26.125 6.25992 26.125 6.04601 26.016C5.85785 25.9201 5.70487 25.7672 5.60899 25.579C5.5 25.3651 5.5 25.0851 5.5 24.525V12.6C5.5 12.0399 5.5 11.7599 5.60899 11.546C5.70487 11.3578 5.85785 11.2049 6.04601 11.109C6.25992 11 6.53995 11 7.1 11H11" stroke="#33363F" stroke-width="2" stroke-linejoin="round"/>
</svg>
